<?xml version="1.0" encoding="utf-8"?>
<!-- Generator: Adobe Illustrator 16.0.3, SVG Export Plug-In . SVG Version: 6.00 Build 0)  -->
<!DOCTYPE svg PUBLIC "-//W3C//DTD SVG 1.1//EN" "http://www.w3.org/Graphics/SVG/1.1/DTD/svg11.dtd">
<svg version="1.1" xmlns="http://www.w3.org/2000/svg" xmlns:xlink="http://www.w3.org/1999/xlink" x="0px" y="0px" width="100px"
	 height="100px" viewBox="0 0 100 100" enable-background="new 0 0 100 100" xml:space="preserve">
<g id="Layer_2" display="none">
	<rect display="inline" width="100" height="100"/>
</g>
<g id="Layer_1">
	<circle display="none" fill="#5D81A2" cx="50.166" cy="50.166" r="49.912"/>
	<g id="Layer_3">
	</g>
	<g>
		<path fill="#FFFFFF" d="M53.884,34.823c-0.266-0.484-0.088-1.092,0.396-1.357c3.286-1.798,7.773-3.853,13.007-3.754
			c3.811,0.07,6.804,0.907,8.989,1.518c0.422,0.118,0.821,0.23,1.198,0.329c0.534,0.14,0.854,0.686,0.715,1.22
			c-0.141,0.535-0.688,0.853-1.221,0.714c-0.388-0.101-0.797-0.216-1.23-0.337c-2.198-0.614-4.933-1.379-8.487-1.444
			c-4.707-0.095-8.806,1.769-11.859,3.43h24.8v-8.097c-1.595-0.709-5.837-2.235-13.028-2.368l-0.415-0.003
			c-7.508,0-12.848,3.805-14.421,5.074v5.395h1.845C54.059,35.057,53.956,34.955,53.884,34.823z"/>
		<path fill="#FFFFFF" d="M80.191,65.99v-30.85h-24.8c-0.049,0.026-0.103,0.053-0.15,0.08c-0.152,0.083-0.317,0.123-0.479,0.123
			c-0.213,0-0.417-0.075-0.59-0.202h-1.845v33.095c2.696-1.85,7.53-4.159,14.863-4.159C73.92,64.076,77.932,65.077,80.191,65.99z
			 M78.734,52.787c-0.14,0.535-0.692,0.85-1.22,0.716c-0.391-0.102-0.805-0.218-1.242-0.34c-2.196-0.613-4.93-1.377-8.479-1.442
			c-4.786-0.09-8.746,1.726-12.01,3.51c-0.152,0.083-0.316,0.122-0.479,0.122c-0.354,0-0.697-0.188-0.879-0.521
			c-0.265-0.484-0.086-1.092,0.398-1.357c3.29-1.797,7.753-3.836,13.005-3.753c3.806,0.07,6.797,0.906,8.981,1.516
			c0.426,0.118,0.828,0.231,1.208,0.33C78.554,51.707,78.874,52.253,78.734,52.787z M53.884,41.348
			c-0.266-0.484-0.088-1.092,0.396-1.357c3.287-1.798,7.736-3.843,13.008-3.755c3.807,0.07,6.799,0.906,8.983,1.517
			c0.424,0.118,0.824,0.23,1.203,0.329c0.534,0.14,0.854,0.686,0.715,1.22s-0.688,0.85-1.221,0.715
			c-0.389-0.102-0.8-0.216-1.235-0.338c-2.196-0.614-4.931-1.377-8.482-1.443c-4.767-0.099-8.94,1.83-12.01,3.51
			c-0.152,0.083-0.317,0.123-0.479,0.123C54.408,41.868,54.065,41.68,53.884,41.348z M54.644,46.877
			c3.285-1.797,7.719-3.846,13.006-3.755c3.81,0.07,6.804,0.907,8.99,1.518c0.423,0.118,0.821,0.23,1.199,0.329
			c0.534,0.139,0.854,0.686,0.715,1.22c-0.142,0.534-0.688,0.854-1.221,0.714c-0.388-0.101-0.798-0.216-1.231-0.337
			c-2.199-0.615-4.935-1.379-8.488-1.444c-4.77-0.079-8.94,1.83-12.009,3.51c-0.152,0.083-0.317,0.123-0.479,0.123
			c-0.354,0-0.696-0.188-0.878-0.52C53.981,47.75,54.159,47.143,54.644,46.877z M55.275,61.925c-0.354,0-0.697-0.188-0.879-0.521
			c-0.265-0.484-0.086-1.092,0.398-1.357c3.262-1.782,7.682-3.814,13.005-3.724c3.856,0.068,6.871,0.904,9.073,1.514
			c0.392,0.109,0.763,0.212,1.115,0.304c0.534,0.141,0.854,0.687,0.715,1.221c-0.141,0.534-0.686,0.849-1.221,0.715
			c-0.361-0.095-0.742-0.2-1.144-0.312c-2.215-0.613-4.973-1.378-8.574-1.441c-4.87-0.109-8.966,1.814-12.011,3.479
			C55.602,61.886,55.438,61.925,55.275,61.925z"/>
		<path fill="#FFFFFF" d="M83.191,35.898v36.402l-2.528-2.379c-0.001,0-3.055-2.493-13.473-2.493
			c-10.504,0-15.039,5.063-15.227,5.279l-1.426,1.632v0.096l-0.041-0.049l-1.172-1.395l-1.419-1.688
			c-0.207-0.24-4.699-5.271-15.17-5.271c-10.418,0-13.471,2.492-13.5,2.518l-2.472,2.101l-0.028-3.219V35.898h-2.332v38.468h27.808
			c0.981,3.003,4.487,5.228,8.673,5.228c4.14,0,7.638-2.225,8.617-5.228h26.406V35.898H83.191z"/>
		<path fill="#FFFFFF" d="M33.459,35.786c0.894-0.017,1.753,0.046,2.596,0.141h11.833v-6.699c-1.557-1.248-6.863-4.998-14.367-4.998
			l-0.418,0.003c-7.186,0.13-11.428,1.632-13.027,2.333v9.36h11.12C31.917,35.854,32.667,35.801,33.459,35.786z M22.557,32.328
			c-0.139-0.534,0.181-1.081,0.715-1.22c0.378-0.099,0.779-0.21,1.203-0.329c2.185-0.611,5.178-1.447,8.985-1.517
			c5.248-0.084,9.722,1.957,13.007,3.754c0.484,0.265,0.663,0.873,0.397,1.357c-0.182,0.332-0.525,0.52-0.878,0.52
			c-0.162,0-0.327-0.04-0.479-0.123c-3.069-1.68-7.208-3.607-12.011-3.509c-3.551,0.064-6.286,0.829-8.482,1.443
			c-0.436,0.122-0.848,0.237-1.237,0.338C23.244,33.181,22.697,32.862,22.557,32.328z"/>
		<path fill="#FFFFFF" d="M47.888,67.121V35.898H36.055c4.152,0.465,7.681,2.119,10.412,3.614c0.484,0.265,0.663,0.873,0.397,1.357
			c-0.182,0.332-0.525,0.52-0.878,0.52c-0.162,0-0.327-0.04-0.479-0.123c-3.07-1.68-7.212-3.595-12.011-3.51
			c-3.554,0.065-6.289,0.83-8.487,1.444c-0.434,0.121-0.844,0.236-1.231,0.337c-0.538,0.141-1.082-0.18-1.22-0.714
			c-0.14-0.535,0.18-1.081,0.714-1.22c0.377-0.099,0.777-0.21,1.199-0.329c1.73-0.484,3.976-1.103,6.724-1.377h-11.12v29.021
			c2.26-0.9,6.271-1.887,13-1.887C40.392,63.032,45.202,65.298,47.888,67.121z M22.908,44.491c0.38-0.099,0.783-0.211,1.208-0.33
			c2.184-0.61,5.176-1.445,8.98-1.516c5.28-0.093,9.724,1.958,13.006,3.756c0.484,0.266,0.662,0.873,0.396,1.357
			c-0.182,0.332-0.524,0.52-0.878,0.52c-0.163,0-0.327-0.04-0.479-0.123c-3.066-1.68-7.211-3.603-12.008-3.51
			c-3.549,0.065-6.283,0.829-8.479,1.442c-0.438,0.122-0.851,0.237-1.241,0.339c-0.534,0.136-1.082-0.181-1.22-0.715
			C22.054,45.177,22.374,44.631,22.908,44.491z M22.728,51.09c0.378-0.099,0.779-0.21,1.203-0.329
			c2.186-0.61,5.178-1.446,8.985-1.516c5.278-0.097,9.722,1.957,13.007,3.755c0.484,0.265,0.663,0.873,0.397,1.357
			c-0.182,0.332-0.525,0.52-0.878,0.52c-0.162,0-0.327-0.039-0.479-0.123c-3.068-1.68-7.221-3.597-12.011-3.509
			c-3.552,0.065-6.287,0.829-8.484,1.442c-0.436,0.121-0.848,0.236-1.236,0.338c-0.536,0.135-1.081-0.182-1.22-0.716
			C21.874,51.775,22.194,51.229,22.728,51.09z M24.416,59.288c-0.405,0.111-0.79,0.217-1.154,0.312
			c-0.535,0.144-1.081-0.183-1.219-0.717c-0.139-0.534,0.182-1.08,0.717-1.219c0.355-0.093,0.73-0.195,1.126-0.305
			c2.2-0.604,5.212-1.433,9.062-1.504c5.326-0.086,9.75,1.935,13.006,3.716c0.484,0.265,0.663,0.872,0.397,1.356
			c-0.182,0.333-0.524,0.521-0.878,0.521c-0.162,0-0.327-0.039-0.479-0.123c-3.038-1.661-7.136-3.567-12.009-3.47
			C29.386,57.922,26.63,58.68,24.416,59.288z"/>
		<polygon fill="#5D80A1" points="50.538,74.34 50.497,74.387 50.538,74.436 		"/>
	</g>
</g>
</svg>
