<?xml version="1.0" encoding="utf-8"?>
<!-- Generator: Adobe Illustrator 16.0.3, SVG Export Plug-In . SVG Version: 6.00 Build 0)  -->
<!DOCTYPE svg PUBLIC "-//W3C//DTD SVG 1.1//EN" "http://www.w3.org/Graphics/SVG/1.1/DTD/svg11.dtd">
<svg version="1.1" xmlns="http://www.w3.org/2000/svg" xmlns:xlink="http://www.w3.org/1999/xlink" x="0px" y="0px" width="100px"
	 height="100px" viewBox="0 0 100 100" enable-background="new 0 0 100 100" xml:space="preserve">
<g id="Layer_1" display="none">
	<circle display="inline" fill="#5D81A2" cx="50.166" cy="50.166" r="49.912"/>
</g>
<g id="Layer_3" display="none">
	<rect display="inline" width="100" height="100"/>
</g>
<g id="Layer_2">
	<circle fill="#FFFFFF" cx="45.337" cy="19.141" r="2.602"/>
	<g>
		<path fill="none" d="M58.301,32.16c-0.014,0-0.021,0.001-0.034,0.002c0.015,0,0.026-0.001,0.042-0.001
			C58.306,32.161,58.303,32.16,58.301,32.16z"/>
		<path fill="none" d="M40.428,32.184c-0.001,0-0.003,0-0.005,0c0.024,0,0.041,0,0.041,0S40.452,32.184,40.428,32.184z"/>
		<path fill="none" d="M58.315,40.908c0.006,0,0.015-0.001,0.021-0.001c-0.023,0-0.044,0-0.065,0
			C58.287,40.906,58.297,40.908,58.315,40.908z"/>
		<path fill="none" d="M40.122,40.785c0.005,0,0.007,0,0.012,0c-0.017,0-0.037-0.001-0.055-0.002
			C40.092,40.783,40.109,40.785,40.122,40.785z"/>
		<path fill="#FFFFFF" stroke="#FFFFFF" stroke-width="0.25" stroke-miterlimit="10" d="M74.613,81.66L58.171,52.751v-9.345
			c0.046,0.001,0.094,0.002,0.145,0.002c1.283,0,2.376-0.453,3.077-1.276c0.909-1.069,1.154-2.336,1.079-3.256v-4.918
			c0.057-0.851-0.202-2.006-1.099-3.002c-0.757-0.836-1.847-1.294-3.072-1.294c-0.183,0-0.345,0.011-0.476,0.024H40.506l-0.078,0
			c-0.631,0-2.22,0.127-3.33,1.303c-1.024,1.09-1.192,2.401-1.22,2.776l-0.007,0.091v0.091v4.709
			c-0.04,0.656-0.006,2.511,1.459,3.682c0.775,0.621,1.741,0.949,2.791,0.949c0.041,0,0.08,0,0.118-0.001v9.493l-14.054,29.25
			c-0.292,0.621-1.627,3.749-0.012,6.103c1.509,2.209,4.283,2.381,5.098,2.381h0.026h0.013h37.816
			c0.213,0.035,0.479,0.064,0.785,0.064c1.901,0,3.553-1.054,4.531-2.892C75.81,85.127,75.407,82.883,74.613,81.66z M58.599,40.894
			C58.6,40.894,58.6,40.894,58.599,40.894C58.6,40.894,58.6,40.894,58.599,40.894z M59.172,40.739
			c0.027-0.014,0.056-0.026,0.082-0.042C59.228,40.713,59.199,40.726,59.172,40.739z M59.244,32.406
			c-0.029-0.019-0.061-0.033-0.091-0.048C59.184,32.374,59.215,32.388,59.244,32.406z M58.881,40.844
			c0.028-0.007,0.056-0.017,0.084-0.025C58.937,40.827,58.909,40.837,58.881,40.844z M58.945,32.266
			c-0.033-0.011-0.066-0.023-0.099-0.032C58.879,32.243,58.912,32.255,58.945,32.266z M58.633,32.188
			c-0.024-0.003-0.051-0.009-0.074-0.012C58.582,32.179,58.608,32.185,58.633,32.188z M58.315,40.908
			c-0.019,0-0.028-0.001-0.045-0.001c0.021,0,0.042,0,0.065,0C58.33,40.907,58.321,40.908,58.315,40.908z M58.301,32.16
			c0.002,0,0.005,0,0.008,0c-0.016,0-0.027,0.001-0.042,0.001C58.28,32.162,58.287,32.16,58.301,32.16z M58.131,40.901
			c-0.012-0.001-0.027-0.001-0.037-0.002C58.104,40.9,58.119,40.9,58.131,40.901z M58.088,32.171
			c-0.023,0.002-0.03,0.003-0.046,0.005C58.058,32.174,58.064,32.173,58.088,32.171z M52.12,33.373c1.408,0,2.551,1.143,2.551,2.552
			c0,1.407-1.143,2.548-2.551,2.548c-1.4,0-2.53-1.141-2.53-2.548C49.59,34.516,50.72,33.373,52.12,33.373z M55.46,51.979
			c0,1.594-1.291,2.881-2.883,2.881c-1.593,0-2.863-1.287-2.863-2.881c0-1.591,1.271-2.883,2.863-2.883
			C54.169,49.095,55.46,50.388,55.46,51.979z M45.994,39.686c1.922,0,3.477,1.556,3.477,3.477c0,1.917-1.555,3.472-3.477,3.472
			c-1.916,0-3.474-1.555-3.474-3.472C42.521,41.242,44.078,39.686,45.994,39.686z M40.428,32.184c0.023,0,0.036,0,0.036,0
			s-0.017,0-0.041,0C40.425,32.184,40.427,32.184,40.428,32.184z M40.403,32.184c-0.024,0-0.055,0.001-0.091,0.003
			C40.349,32.185,40.379,32.185,40.403,32.184z M40.396,40.768c-0.015,0.002-0.019,0.002-0.04,0.005
			C40.377,40.77,40.381,40.77,40.396,40.768z M38.917,32.703c0.062-0.066,0.132-0.123,0.206-0.172
			C39.049,32.58,38.979,32.637,38.917,32.703z M39.194,40.574c0.033,0.017,0.066,0.029,0.1,0.043
			C39.26,40.603,39.227,40.59,39.194,40.574z M39.201,32.485c0.051-0.03,0.102-0.06,0.156-0.084
			C39.303,32.425,39.252,32.455,39.201,32.485z M39.602,32.308c-0.05,0.016-0.1,0.035-0.15,0.054
			C39.502,32.342,39.552,32.323,39.602,32.308z M39.501,40.694c0.037,0.011,0.073,0.02,0.108,0.028
			C39.574,40.714,39.538,40.705,39.501,40.694z M39.844,32.246c-0.047,0.009-0.095,0.021-0.144,0.034
			C39.749,32.268,39.797,32.255,39.844,32.246z M39.799,40.759c0.032,0.004,0.063,0.01,0.093,0.013
			C39.863,40.769,39.831,40.764,39.799,40.759z M39.937,32.229c0.045-0.008,0.089-0.014,0.131-0.02
			C40.026,32.214,39.982,32.221,39.937,32.229z M40.122,40.785c-0.013,0-0.03-0.002-0.043-0.002c0.018,0,0.038,0.002,0.055,0.002
			C40.128,40.785,40.126,40.785,40.122,40.785z M40.146,32.2c0.042-0.004,0.08-0.007,0.115-0.009
			C40.225,32.192,40.187,32.195,40.146,32.2z M72.253,86.603c-1.09,2.041-2.859,1.502-2.859,1.502H31.326
			c0,0-2.146,0.046-3.062-1.294c-0.886-1.293,0.204-3.605,0.204-3.605S42.713,53.413,42.77,53.444
			c2.692,0.431,1.877,8.714,7.818,8.956c6.782,0.279,5.509-2.728,8.239-3.177c0.133-0.019,13.676,23.851,13.676,23.851
			S73.444,84.37,72.253,86.603z"/>
		<g>
			<path fill="#5D80A1" d="M69.912,88.074c0.01,0,0.021-0.002,0.032-0.002c-0.023,0.001-0.047,0.001-0.069,0
				C69.889,88.072,69.898,88.074,69.912,88.074z"/>
			<path fill="#FFFFFF" d="M69.944,88.072c-0.003,0-0.005,0-0.008,0C69.938,88.072,69.941,88.072,69.944,88.072L69.944,88.072z
				 M69.875,88.072c0.004,0,0.008,0,0.011,0C69.883,88.072,69.879,88.072,69.875,88.072L69.875,88.072z M69.937,88.072
				c-0.009,0.001-0.019,0.001-0.027,0.001c-0.008,0-0.016,0-0.023-0.001c0.009,0.001,0.017,0.002,0.026,0.002
				C69.92,88.074,69.928,88.073,69.937,88.072L69.937,88.072z"/>
		</g>
	</g>
	<path fill="#FFFFFF" d="M56.425,11.687c0,2.23-1.801,4.038-4.029,4.038c-2.206,0-4.017-1.808-4.017-4.038
		c0-2.229,1.811-4.037,4.017-4.037C54.624,7.65,56.425,9.458,56.425,11.687z"/>
</g>
</svg>
