<?xml version="1.0" encoding="utf-8"?>
<!-- Generator: Adobe Illustrator 16.0.3, SVG Export Plug-In . SVG Version: 6.00 Build 0)  -->
<!DOCTYPE svg PUBLIC "-//W3C//DTD SVG 1.1//EN" "http://www.w3.org/Graphics/SVG/1.1/DTD/svg11.dtd">
<svg version="1.1" xmlns="http://www.w3.org/2000/svg" xmlns:xlink="http://www.w3.org/1999/xlink" x="0px" y="0px" width="100px"
	 height="100px" viewBox="0 0 100 100" enable-background="new 0 0 100 100" xml:space="preserve">
<g id="Layer_1" display="none">
	<circle display="inline" fill="#5D81A2" cx="50.166" cy="50.166" r="49.912"/>
</g>
<g id="Layer_4" display="none">
	<rect display="inline" width="100" height="100"/>
</g>
<g id="Layer_2">
	<g>
		<g>
			<polygon fill="none" points="42.75,85.759 47.96,90.215 47.935,74.727 45.516,74.614 41.904,78.994 38.039,74.472 37.026,74.559 
				37.026,90.203 			"/>
			<polygon fill="#FFFFFF" points="47.96,90.215 42.75,85.759 37.026,90.203 37.026,74.559 35.026,74.731 35.026,94.289 
				42.689,88.339 49.967,94.563 49.935,74.819 47.935,74.727 			"/>
			<g>
				<path fill="none" d="M67.85,46.403H34.434c-0.552,0-1,0.448-1,1s0.448,1,1,1H67.85c0.553,0,1-0.448,1-1
					S68.402,46.403,67.85,46.403z"/>
				<path fill="none" d="M34.455,27.384h33.433c0.553,0,1-0.448,1-1s-0.447-1-1-1H34.455c-0.552,0-1,0.448-1,1
					S33.903,27.384,34.455,27.384z"/>
				<path fill="none" d="M67.888,39.264H34.474c-0.552,0-1,0.448-1,1s0.448,1,1,1h33.414c0.553,0,1-0.448,1-1
					S68.44,39.264,67.888,39.264z"/>
				<path fill="none" d="M67.908,32.324H34.494c-0.552,0-1,0.448-1,1s0.448,1,1,1h33.415c0.553,0,1-0.448,1-1
					S68.461,32.324,67.908,32.324z"/>
				<path fill="#FFFFFF" d="M70.326,16.615H32.058c-3.023,0-5.475,2.452-5.475,5.475v53.381c0,3.023,2.452,5.476,5.475,5.476H37
					l0-6.387l-1.974,0.171l-2.924,0.252l0.951-5.925l-5.047-3.878l5.119-3.099l-1.109-6.703l6.521,1.29l3.244-5.385l3.592,5.313
					l6.15-1.306l-1.156,5.65l5.293,4.115l-4.653,4.144l0.602,5.696l-1.674-0.078l-1.969-0.091l-0.012,6.209l22.373,0.01
					c3.023,0,5.475-2.452,5.475-5.476V22.09C75.801,19.067,73.35,16.615,70.326,16.615z M34.455,25.384h33.433c0.553,0,1,0.448,1,1
					s-0.447,1-1,1H34.455c-0.552,0-1-0.448-1-1S33.903,25.384,34.455,25.384z M67.85,48.403H34.434c-0.552,0-1-0.448-1-1
					s0.448-1,1-1H67.85c0.553,0,1,0.448,1,1S68.402,48.403,67.85,48.403z M67.888,41.264H34.474c-0.552,0-1-0.448-1-1s0.448-1,1-1
					h33.414c0.553,0,1,0.448,1,1S68.44,41.264,67.888,41.264z M67.908,34.324H34.494c-0.552,0-1-0.448-1-1s0.448-1,1-1h33.415
					c0.553,0,1,0.448,1,1S68.461,34.324,67.908,34.324z"/>
			</g>
		</g>
		<path fill="#FFFFFF" d="M48.083,65.658c0,3.281-2.622,5.94-5.901,5.94c-3.28,0-5.94-2.659-5.94-5.94
			c0-3.279,2.66-5.938,5.94-5.938C45.461,59.72,48.083,62.379,48.083,65.658z"/>
	</g>
</g>
<g id="Layer_3" display="none">
	<path display="inline" fill="#5D81A2" stroke="#FFFFFF" stroke-width="2" stroke-miterlimit="10" d="M77.485,26.326H70.2
		c-2.631,0-4.764-2.134-4.764-4.765v-5.229l5.815,0c0,0,2.497-0.182,4.188,1.208c1.185,0.975,1.875,2.31,2.106,3.826
		C77.914,23.77,77.485,26.326,77.485,26.326z"/>
</g>
</svg>
