<?xml version="1.0" encoding="utf-8"?>
<!-- Generator: Adobe Illustrator 16.0.3, SVG Export Plug-In . SVG Version: 6.00 Build 0)  -->
<!DOCTYPE svg PUBLIC "-//W3C//DTD SVG 1.1//EN" "http://www.w3.org/Graphics/SVG/1.1/DTD/svg11.dtd">
<svg version="1.1" xmlns="http://www.w3.org/2000/svg" xmlns:xlink="http://www.w3.org/1999/xlink" x="0px" y="0px" width="100px"
	 height="100px" viewBox="0 0 100 100" enable-background="new 0 0 100 100" xml:space="preserve">
<g id="Layer_1" display="none">
	<circle display="inline" fill="#5D81A2" cx="50.166" cy="50.166" r="49.912"/>
	<g id="Layer_8" display="inline">
		<rect width="100" height="100"/>
	</g>
</g>
<g id="Layer_2">
</g>
<g id="Layer_3">
	<path fill="none" stroke="#FDFDFE" stroke-width="5" stroke-linejoin="bevel" stroke-miterlimit="10" d="M75.166,81.834
		c0,2.762-2.238,5-5,5H30.833c-2.761,0-5-2.238-5-5V23.5c0-2.761,2.239-5,5-5h39.333c2.762,0,5,2.239,5,5V81.834z"/>
	<g>
		<path fill="#FDFDFE" d="M43.97,23.833c-1.378,0-2.5-1.122-2.5-2.5v-4.5c0-1.378,1.122-2.5,2.5-2.5h12.637
			c1.379,0,2.5,1.122,2.5,2.5v4.5c0,1.378-1.121,2.5-2.5,2.5H43.97z"/>
		<path fill="#FDFDFE" d="M56.606,14.833c1.104,0,2,0.896,2,2v4.5c0,1.104-0.896,2-2,2H43.97c-1.104,0-2-0.896-2-2v-4.5
			c0-1.104,0.896-2,2-2H56.606 M56.606,13.833H43.97c-1.654,0-3,1.346-3,3v4.5c0,1.654,1.346,3,3,3h12.637c1.654,0,3-1.346,3-3v-4.5
			C59.606,15.179,58.261,13.833,56.606,13.833L56.606,13.833z"/>
	</g>
</g>
<g id="LINES">
	
		<line fill="none" stroke="#FDFDFE" stroke-width="3" stroke-linecap="round" stroke-miterlimit="10" x1="41.967" y1="33.5" x2="68.075" y2="33.5"/>
	
		<line fill="none" stroke="#FDFDFE" stroke-width="3" stroke-linecap="round" stroke-miterlimit="10" x1="32.554" y1="33.666" x2="35.387" y2="33.666"/>
</g>
<g id="LINES_copy">
	
		<line fill="none" stroke="#FDFDFE" stroke-width="3" stroke-linecap="round" stroke-miterlimit="10" x1="41.967" y1="42.761" x2="68.075" y2="42.761"/>
	
		<line fill="none" stroke="#FDFDFE" stroke-width="3" stroke-linecap="round" stroke-miterlimit="10" x1="32.554" y1="42.927" x2="35.387" y2="42.927"/>
</g>
<g id="LINES_copy_2">
	
		<line fill="none" stroke="#FDFDFE" stroke-width="3" stroke-linecap="round" stroke-miterlimit="10" x1="41.967" y1="52.774" x2="68.075" y2="52.774"/>
	
		<line fill="none" stroke="#FDFDFE" stroke-width="3" stroke-linecap="round" stroke-miterlimit="10" x1="32.554" y1="52.946" x2="35.387" y2="52.946"/>
</g>
<g id="LINES_copy_3">
	
		<line fill="none" stroke="#FDFDFE" stroke-width="3" stroke-linecap="round" stroke-miterlimit="10" x1="41.967" y1="62.896" x2="68.075" y2="62.896"/>
	
		<line fill="none" stroke="#FDFDFE" stroke-width="3" stroke-linecap="round" stroke-miterlimit="10" x1="32.554" y1="63.068" x2="35.387" y2="63.068"/>
</g>
</svg>
