<?xml version="1.0" encoding="utf-8"?>
<!-- Generator: Adobe Illustrator 16.0.3, SVG Export Plug-In . SVG Version: 6.00 Build 0)  -->
<!DOCTYPE svg PUBLIC "-//W3C//DTD SVG 1.1//EN" "http://www.w3.org/Graphics/SVG/1.1/DTD/svg11.dtd">
<svg version="1.1" xmlns="http://www.w3.org/2000/svg" xmlns:xlink="http://www.w3.org/1999/xlink" x="0px" y="0px" width="100px"
	 height="100px" viewBox="0 0 100 100" enable-background="new 0 0 100 100" xml:space="preserve">
<g id="Layer_1" display="none">
	<circle display="inline" fill="#5D81A2" cx="50.166" cy="50.166" r="49.912"/>
</g>
<g id="Layer_3" display="none">
	<rect display="inline" width="100" height="100"/>
</g>
<g id="Layer_2">
	<path fill="#FFFFFF" d="M65.287,53.808c1.489-1.769,1.294-4.415-0.44-5.906l-0.522-0.45c-1.734-1.491-4.348-1.294-5.839,0.439
		l-7.484,8.774c-1.139-0.811-2.508-1.545-4.015-2.081c4.532-1.946,7.746-6.537,7.746-11.822c0-7.048-5.668-12.763-12.708-12.763
		c-7.049,0-12.763,5.715-12.763,12.763c0,5.294,3.224,9.89,7.817,11.832c-4.726,1.723-7.989,5.474-7.989,7.203l-2.415,21.215
		c0.863,4.656,30.991,4.485,31.681-0.345L55.7,64.832c0.212-0.167,0.409-0.352,0.592-0.562L65.287,53.808z"/>
	<g>
		<path fill="none" d="M64.847,47.902l-0.522-0.45c-0.782-0.672-1.742-1.001-2.698-1.001c-1.164,0-2.321,0.489-3.141,1.44
			l-7.484,8.774c-1.139-0.811-2.508-1.545-4.015-2.081c4.532-1.946,7.746-6.537,7.746-11.822c0-7.048-5.668-12.763-12.708-12.763
			c-7.049,0-12.763,5.715-12.763,12.763c0,5.294,3.224,9.89,7.817,11.832c-4.132,1.506-7.145,4.563-7.838,6.463h29.816l6.232-7.249
			C66.776,52.039,66.581,49.393,64.847,47.902z"/>
		<path fill="none" d="M26.672,83.012c0.419,2.265,7.764,3.388,15.275,3.388c7.932,0,16.051-1.252,16.406-3.732l-2.62-17.61H28.716
			L26.672,83.012z"/>
		<path fill="none" d="M31.259,54.337c-3.136-2.938-4.999-7.095-4.999-11.575c0-8.692,7.071-15.763,15.763-15.763
			c8.662,0,15.708,7.071,15.708,15.763c0,0.647-0.039,1.288-0.115,1.919c1.172-0.794,2.564-1.23,4.01-1.23
			c1.706,0,3.359,0.613,4.655,1.728l0.521,0.449c2.974,2.556,3.323,7.093,0.76,10.137l-4.55,5.293h14.583
			c1.496,0,2.76-0.876,2.76-1.913V26.002c0-1.038-1.264-1.914-2.76-1.914h-55.22c-1.496,0-2.76,0.876-2.76,1.914v33.141
			c0,1.037,1.264,1.913,2.76,1.913h3.798C26.55,58.854,28.515,56.33,31.259,54.337z"/>
		<path fill="#FFFFFF" d="M77.595,20.088h-55.22c-3.728,0-6.76,2.653-6.76,5.914v33.141c0,3.261,3.033,5.913,6.76,5.913h3.322
			l0.397-3.485c0.009-0.168,0.05-0.343,0.08-0.515h-3.798c-1.496,0-2.76-0.876-2.76-1.913V26.002c0-1.038,1.264-1.914,2.76-1.914
			h55.22c1.496,0,2.76,0.876,2.76,1.914v33.141c0,1.037-1.264,1.913-2.76,1.913H63.012l-3.439,4h18.022
			c3.728,0,6.76-2.652,6.76-5.913V26.002C84.354,22.741,81.322,20.088,77.595,20.088z"/>
		<path fill="#FFFFFF" d="M29.087,61.797l-0.371,3.26h27.017L55.7,64.832c0.212-0.167,0.409-0.352,0.592-0.562l2.763-3.214H29.239
			C29.14,61.33,29.087,61.579,29.087,61.797z"/>
	</g>
</g>
</svg>
