<?xml version="1.0" encoding="utf-8"?>
<!-- Generator: Adobe Illustrator 16.0.3, SVG Export Plug-In . SVG Version: 6.00 Build 0)  -->
<!DOCTYPE svg PUBLIC "-//W3C//DTD SVG 1.1//EN" "http://www.w3.org/Graphics/SVG/1.1/DTD/svg11.dtd">
<svg version="1.1" xmlns="http://www.w3.org/2000/svg" xmlns:xlink="http://www.w3.org/1999/xlink" x="0px" y="0px" width="100px"
	 height="100px" viewBox="0 0 100 100" enable-background="new 0 0 100 100" xml:space="preserve">
<g id="Layer_1" display="none">
	<circle display="inline" fill="#5D81A2" cx="50.166" cy="50.166" r="49.912"/>
</g>
<g id="Layer_3" display="none">
	<rect display="inline" width="100" height="101"/>
</g>
<g id="Layer_2">
	<g>
		<g>
			<path fill="#FFFFFF" d="M79.23,71.336l-26.67-54.609c0,0-1.248-3.133-2.529-3.133s-2.529,3.12-2.529,3.12L19.664,72.206
				c0,0-1.206,1.994-0.82,2.638c0.375,0.625,2.234,0.442,2.234,0.442h56.266c0,0,2.263,0.146,2.703-0.661S79.23,71.336,79.23,71.336
				z M52.971,68.529c-0.792,0.793-1.761,1.194-2.878,1.194c-1.117,0-2.085-0.401-2.877-1.194c-0.792-0.792-1.194-1.76-1.194-2.878
				c0-1.136,0.402-2.112,1.194-2.904c0.791-0.792,1.759-1.194,2.877-1.194s2.087,0.402,2.878,1.194
				c0.793,0.792,1.194,1.77,1.194,2.904C54.165,66.769,53.764,67.737,52.971,68.529z M54.102,37.928l-3.055,21.72h-1.808
				l-2.663-21.184c-0.226-1.73-0.335-3.039-0.335-3.996c0-1.393,0.369-2.513,1.096-3.33c0.75-0.841,1.779-1.268,3.059-1.268
				c1.223,0,2.218,0.416,2.958,1.237c0.721,0.8,1.086,1.884,1.086,3.223C54.439,35.172,54.326,36.383,54.102,37.928z"/>
		</g>
	</g>
</g>
</svg>
