<?xml version="1.0" encoding="utf-8"?>
<!-- Generator: Adobe Illustrator 16.0.3, SVG Export Plug-In . SVG Version: 6.00 Build 0)  -->
<!DOCTYPE svg PUBLIC "-//W3C//DTD SVG 1.1//EN" "http://www.w3.org/Graphics/SVG/1.1/DTD/svg11.dtd">
<svg version="1.1" xmlns="http://www.w3.org/2000/svg" xmlns:xlink="http://www.w3.org/1999/xlink" x="0px" y="0px" width="100px"
	 height="100px" viewBox="0 0 100 100" enable-background="new 0 0 100 100" xml:space="preserve">
<g id="Layer_1" display="none">
	<circle display="inline" fill="#5D81A2" cx="50.166" cy="50.166" r="49.912"/>
	<g id="Layer_3" display="inline">
		<rect width="100" height="100"/>
	</g>
</g>
<g id="Layer_2">
	<g>
		<path fill="none" d="M41.9,86.088c-0.22-0.022-0.435-0.047-0.65-0.071C41.465,86.041,41.68,86.065,41.9,86.088z"/>
		<path fill="none" d="M62.226,84.637c-0.122,0.048-0.26,0.093-0.391,0.139C61.966,84.729,62.104,84.685,62.226,84.637z"/>
		<path fill="none" d="M36.42,85.118c-0.156-0.046-0.297-0.096-0.443-0.145C36.123,85.022,36.264,85.072,36.42,85.118z"/>
		<path fill="none" d="M44.535,86.288c-0.238-0.013-0.473-0.027-0.708-0.043C44.063,86.261,44.297,86.275,44.535,86.288z"/>
		<path fill="none" d="M43.195,86.201c-0.229-0.018-0.453-0.037-0.678-0.057C42.742,86.164,42.967,86.184,43.195,86.201z"/>
		<path fill="none" d="M40.659,85.947c-0.21-0.026-0.413-0.056-0.617-0.085C40.246,85.892,40.449,85.921,40.659,85.947z"/>
		<path fill="none" d="M63.57,83.957c-0.078,0.054-0.174,0.103-0.261,0.154C63.396,84.06,63.492,84.011,63.57,83.957z"/>
		<path fill="none" d="M37.349,85.365c-0.17-0.041-0.329-0.085-0.49-0.128C37.021,85.28,37.179,85.324,37.349,85.365z"/>
		<path fill="none" d="M62.963,84.311c-0.102,0.052-0.219,0.099-0.329,0.148C62.744,84.409,62.861,84.362,62.963,84.311z"/>
		<path fill="none" d="M38.374,85.586c-0.185-0.036-0.359-0.074-0.536-0.113C38.014,85.512,38.188,85.55,38.374,85.586z"/>
		<path fill="none" d="M39.479,85.78c-0.198-0.031-0.388-0.065-0.579-0.1C39.091,85.715,39.281,85.749,39.479,85.78z"/>
		<path fill="none" d="M61.369,84.936c-0.142,0.044-0.296,0.085-0.445,0.127C61.073,85.021,61.228,84.979,61.369,84.936z"/>
		<path fill="none" d="M58.196,85.664c-0.19,0.032-0.39,0.062-0.586,0.092C57.808,85.726,58.006,85.696,58.196,85.664z"/>
		<path fill="none" d="M52.972,86.246c-0.231,0.015-0.464,0.027-0.697,0.04C52.508,86.273,52.74,86.261,52.972,86.246z"/>
		<path fill="none" d="M54.35,86.143c-0.223,0.019-0.448,0.036-0.674,0.053C53.901,86.179,54.127,86.161,54.35,86.143z"/>
		<path fill="none" d="M51.558,86.321c-0.233,0.011-0.467,0.019-0.701,0.026C51.091,86.34,51.324,86.332,51.558,86.321z"/>
		<path fill="none" d="M55.688,86.011c-0.213,0.023-0.431,0.045-0.647,0.066C55.258,86.056,55.475,86.034,55.688,86.011z"/>
		<path fill="none" d="M45.903,86.349c-0.244-0.008-0.486-0.019-0.727-0.029C45.417,86.33,45.659,86.341,45.903,86.349z"/>
		<path fill="none" d="M47.292,86.383c-0.246-0.004-0.491-0.01-0.735-0.016C46.802,86.373,47.046,86.379,47.292,86.383z"/>
		<path fill="none" d="M60.404,85.206c-0.159,0.04-0.329,0.077-0.496,0.116C60.075,85.283,60.245,85.246,60.404,85.206z"/>
		<path fill="none" d="M50.123,86.369c-0.235,0.006-0.47,0.01-0.706,0.013C49.653,86.379,49.888,86.375,50.123,86.369z"/>
		<path fill="none" d="M48.372,86.393c0.104,0,0.207-0.003,0.311-0.003c-0.244,0.001-0.487,0-0.73-0.001
			C48.092,86.39,48.231,86.393,48.372,86.393z"/>
		<path fill="none" d="M56.976,85.851c-0.203,0.028-0.413,0.054-0.621,0.08C56.563,85.904,56.772,85.879,56.976,85.851z"/>
		<path fill="none" d="M59.344,85.449c-0.177,0.036-0.361,0.069-0.545,0.104C58.982,85.519,59.167,85.485,59.344,85.449z"/>
		<path fill="none" d="M33.832,83.86c-0.084-0.08-0.143-0.165-0.206-0.249C33.689,83.695,33.748,83.78,33.832,83.86z"/>
		<path fill="none" d="M64.351,83.167c-0.026,0.047-0.072,0.091-0.104,0.137C64.278,83.258,64.324,83.214,64.351,83.167z"/>
		<path fill="none" d="M33.518,83.479c-0.079-0.132-0.134-0.269-0.16-0.409C33.384,83.21,33.439,83.347,33.518,83.479z"/>
		<path fill="none" d="M34.288,84.215c-0.102-0.066-0.182-0.137-0.268-0.206C34.106,84.078,34.187,84.148,34.288,84.215z"/>
		<path fill="none" d="M34.879,84.543c-0.121-0.059-0.222-0.12-0.33-0.181C34.657,84.423,34.759,84.484,34.879,84.543z"/>
		<path fill="none" d="M64.036,83.576c-0.053,0.053-0.125,0.103-0.187,0.154C63.911,83.679,63.983,83.629,64.036,83.576z"/>
		<path fill="none" d="M35.593,84.844c-0.139-0.052-0.262-0.107-0.39-0.162C35.331,84.736,35.454,84.792,35.593,84.844z"/>
		<path fill="#FFFFFF" d="M82.607,71.471l-3.046-20.531c0-1.701-3.408-5.39-8.153-7.077c4.492-1.901,7.646-6.351,7.646-11.537
			c0-6.916-5.606-12.522-12.522-12.522c-5.861,0-10.769,4.034-12.132,9.474c5.602,2.346,9.548,7.88,9.548,14.322
			c0,4.329-1.795,8.369-4.821,11.263c2.887,2.016,5.149,4.671,5.319,7.102l1.958,13.165C74.225,75.138,82.259,73.912,82.607,71.471z
			"/>
		<path fill="#FFFFFF" d="M37.781,54.922c-3.064-2.896-4.884-6.961-4.884-11.322c0-6.747,4.334-12.486,10.359-14.621
			c-1.612-5.053-6.341-8.715-11.928-8.715c-6.916,0-12.522,5.606-12.522,12.522c0,5.193,3.164,9.649,7.669,11.547
			c-4.637,1.689-7.838,5.369-7.838,7.068l-2.369,20.884c0.41,2.213,7.57,3.312,14.921,3.32l1.545-13.577
			C32.862,59.753,34.89,57.036,37.781,54.922z"/>
		<path fill="#FFFFFF" stroke="#FFFFFF" stroke-width="0.25" stroke-miterlimit="10" d="M63.36,75.063l-1.905-12.808
			c0-1.694-3.383-5.361-8.099-7.056c-0.019-0.006-0.035-0.014-0.054-0.021c0.021-0.009,0.039-0.02,0.059-0.028
			c4.294-1.883,7.342-6.062,7.564-10.978c0.009-0.19,0.021-0.38,0.021-0.573c0-0.023-0.003-0.045-0.004-0.068
			c-0.026-4.875-2.842-9.08-6.931-11.125c-1.685-0.843-3.581-1.329-5.594-1.329c-1.63,0-3.182,0.321-4.61,0.888
			c-4.632,1.837-7.912,6.349-7.912,11.634c0,5.194,3.164,9.651,7.669,11.588c-4.636,1.689-7.838,5.37-7.838,7.067l-1.513,13.292
			l-0.856,7.522c0.026,0.141,0.081,0.277,0.16,0.409c0.028,0.046,0.074,0.088,0.108,0.133c0.063,0.084,0.122,0.169,0.206,0.249
			c0.054,0.051,0.126,0.099,0.189,0.148c0.086,0.069,0.166,0.14,0.268,0.206c0.078,0.051,0.174,0.098,0.261,0.147
			c0.108,0.061,0.209,0.122,0.33,0.181c0.1,0.048,0.216,0.093,0.324,0.139c0.128,0.055,0.25,0.11,0.39,0.162
			c0.121,0.045,0.255,0.087,0.384,0.13c0.146,0.049,0.288,0.099,0.443,0.145c0.14,0.041,0.292,0.08,0.439,0.119
			c0.161,0.043,0.319,0.087,0.49,0.128c0.157,0.037,0.324,0.072,0.488,0.107c0.177,0.039,0.352,0.077,0.536,0.113
			c0.17,0.033,0.35,0.063,0.526,0.095c0.191,0.034,0.381,0.068,0.579,0.1c0.184,0.028,0.374,0.055,0.563,0.082
			c0.204,0.029,0.407,0.059,0.617,0.085c0.194,0.024,0.393,0.047,0.591,0.069c0.215,0.024,0.43,0.049,0.65,0.071
			c0.203,0.02,0.411,0.038,0.618,0.057c0.225,0.02,0.449,0.039,0.678,0.057c0.209,0.016,0.42,0.03,0.632,0.044
			c0.234,0.016,0.469,0.03,0.708,0.043c0.212,0.012,0.426,0.021,0.641,0.031c0.241,0.011,0.483,0.021,0.727,0.029
			c0.217,0.008,0.436,0.014,0.655,0.019c0.244,0.006,0.489,0.012,0.735,0.016c0.219,0.003,0.439,0.005,0.66,0.006
			c0.243,0.001,0.487,0.002,0.73,0.001c0.245-0.001,0.49-0.004,0.735-0.008c0.235-0.003,0.471-0.007,0.706-0.013
			c0.245-0.005,0.489-0.013,0.733-0.021c0.234-0.008,0.468-0.016,0.701-0.026c0.24-0.01,0.479-0.022,0.717-0.035
			c0.233-0.013,0.466-0.025,0.697-0.04c0.236-0.016,0.47-0.033,0.704-0.051c0.226-0.017,0.451-0.034,0.674-0.053
			c0.233-0.021,0.462-0.043,0.691-0.065c0.217-0.021,0.435-0.043,0.647-0.066c0.226-0.025,0.445-0.053,0.666-0.08
			c0.208-0.026,0.418-0.052,0.621-0.08c0.216-0.029,0.425-0.063,0.635-0.095c0.196-0.03,0.396-0.06,0.586-0.092
			c0.206-0.035,0.404-0.073,0.603-0.11c0.184-0.035,0.368-0.068,0.545-0.104c0.194-0.041,0.378-0.084,0.564-0.127
			c0.167-0.039,0.337-0.076,0.496-0.116c0.181-0.046,0.349-0.095,0.52-0.144c0.149-0.042,0.304-0.083,0.445-0.127
			c0.164-0.052,0.313-0.106,0.466-0.16c0.131-0.046,0.269-0.091,0.391-0.139c0.146-0.057,0.274-0.118,0.408-0.178
			c0.11-0.05,0.228-0.097,0.329-0.148c0.127-0.063,0.234-0.132,0.347-0.199c0.087-0.052,0.183-0.101,0.261-0.154
			c0.106-0.072,0.189-0.15,0.279-0.227c0.062-0.052,0.134-0.102,0.187-0.154c0.087-0.088,0.146-0.181,0.21-0.272
			c0.032-0.046,0.078-0.09,0.104-0.137c0.077-0.141,0.129-0.286,0.15-0.437L63.36,75.063z"/>
		<path fill="#5D80A1" d="M53.356,55.199l0.005-0.049c-0.02,0.009-0.038,0.02-0.059,0.028
			C53.321,55.186,53.338,55.193,53.356,55.199z"/>
		<path fill="#5D80A1" d="M63.31,84.111c-0.112,0.067-0.22,0.136-0.347,0.199C63.09,84.247,63.197,84.179,63.31,84.111z"/>
		<path fill="#5D80A1" d="M62.634,84.459c-0.134,0.06-0.262,0.121-0.408,0.178C62.372,84.58,62.5,84.519,62.634,84.459z"/>
		<path fill="#5D80A1" d="M57.61,85.756c-0.21,0.032-0.419,0.065-0.635,0.095C57.191,85.821,57.4,85.788,57.61,85.756z"/>
		<path fill="#5D80A1" d="M64.246,83.304c-0.063,0.092-0.123,0.185-0.21,0.272C64.123,83.488,64.183,83.396,64.246,83.304z"/>
		<path fill="#5D80A1" d="M58.799,85.554c-0.198,0.037-0.396,0.075-0.603,0.11C58.403,85.629,58.6,85.591,58.799,85.554z"/>
		<path fill="#5D80A1" d="M61.835,84.775c-0.153,0.054-0.302,0.108-0.466,0.16C61.533,84.884,61.682,84.829,61.835,84.775z"/>
		<path fill="#5D80A1" d="M59.908,85.322c-0.187,0.043-0.37,0.086-0.564,0.127C59.538,85.408,59.722,85.365,59.908,85.322z"/>
		<path fill="#5D80A1" d="M64.501,82.73c-0.021,0.15-0.073,0.296-0.15,0.437C64.428,83.026,64.479,82.881,64.501,82.73z"/>
		<path fill="#5D80A1" d="M63.85,83.73c-0.09,0.076-0.173,0.154-0.279,0.227C63.677,83.885,63.76,83.807,63.85,83.73z"/>
		<path fill="#5D80A1" d="M60.924,85.063c-0.171,0.049-0.339,0.098-0.52,0.144C60.585,85.16,60.753,85.111,60.924,85.063z"/>
		<path fill="#5D80A1" d="M45.176,86.319c-0.214-0.01-0.429-0.02-0.641-0.031C44.747,86.3,44.961,86.31,45.176,86.319z"/>
		<path fill="#5D80A1" d="M37.837,85.473c-0.164-0.035-0.332-0.07-0.488-0.107C37.506,85.403,37.673,85.438,37.837,85.473z"/>
		<path fill="#5D80A1" d="M36.859,85.237c-0.147-0.039-0.299-0.078-0.439-0.119C36.56,85.159,36.711,85.198,36.859,85.237z"/>
		<path fill="#5D80A1" d="M56.354,85.931c-0.221,0.027-0.44,0.055-0.666,0.08C55.914,85.985,56.134,85.958,56.354,85.931z"/>
		<path fill="#5D80A1" d="M40.042,85.862c-0.189-0.027-0.379-0.054-0.563-0.082C39.663,85.809,39.853,85.835,40.042,85.862z"/>
		<path fill="#5D80A1" d="M35.977,84.974c-0.128-0.043-0.263-0.085-0.384-0.13C35.713,84.889,35.848,84.931,35.977,84.974z"/>
		<path fill="#5D80A1" d="M34.549,84.362c-0.087-0.05-0.183-0.097-0.261-0.147C34.366,84.266,34.462,84.313,34.549,84.362z"/>
		<path fill="#5D80A1" d="M35.203,84.682c-0.108-0.046-0.224-0.091-0.324-0.139C34.979,84.591,35.095,84.636,35.203,84.682z"/>
		<path fill="#5D80A1" d="M33.626,83.611c-0.034-0.045-0.08-0.087-0.108-0.133C33.546,83.524,33.592,83.566,33.626,83.611z"/>
		<path fill="#5D80A1" d="M34.021,84.009c-0.063-0.05-0.135-0.098-0.189-0.148C33.885,83.911,33.958,83.959,34.021,84.009z"/>
		<path fill="#5D80A1" d="M41.25,86.017c-0.198-0.022-0.397-0.045-0.591-0.069C40.853,85.972,41.052,85.994,41.25,86.017z"/>
		<path fill="#5D80A1" d="M38.9,85.681c-0.177-0.031-0.356-0.062-0.526-0.095C38.544,85.619,38.723,85.649,38.9,85.681z"/>
		<path fill="#5D80A1" d="M50.856,86.348c-0.244,0.009-0.488,0.017-0.733,0.021C50.368,86.364,50.612,86.356,50.856,86.348z"/>
		<path fill="#5D80A1" d="M53.676,86.195c-0.234,0.018-0.468,0.035-0.704,0.051C53.208,86.23,53.441,86.213,53.676,86.195z"/>
		<path fill="#5D80A1" d="M52.274,86.286c-0.238,0.013-0.477,0.025-0.717,0.035C51.798,86.312,52.036,86.299,52.274,86.286z"/>
		<path fill="#5D80A1" d="M55.041,86.077c-0.229,0.022-0.458,0.045-0.691,0.065C54.583,86.122,54.812,86.1,55.041,86.077z"/>
		<path fill="#5D80A1" d="M46.558,86.367c-0.219-0.005-0.438-0.011-0.655-0.019C46.121,86.356,46.338,86.362,46.558,86.367z"/>
		<path fill="#5D80A1" d="M42.518,86.145c-0.207-0.019-0.415-0.037-0.618-0.057C42.104,86.107,42.311,86.126,42.518,86.145z"/>
		<path fill="#5D80A1" d="M43.828,86.245c-0.212-0.014-0.423-0.028-0.632-0.044C43.404,86.217,43.616,86.231,43.828,86.245z"/>
		<path fill="#5D80A1" d="M49.417,86.382c-0.245,0.004-0.49,0.007-0.735,0.008C48.928,86.389,49.172,86.386,49.417,86.382z"/>
		<path fill="#5D80A1" d="M47.952,86.389c-0.22-0.001-0.44-0.003-0.66-0.006C47.512,86.386,47.731,86.388,47.952,86.389z"/>
	</g>
</g>
</svg>
